<svg width="36" height="36" viewBox="0 0 36 36" fill="none" xmlns="http://www.w3.org/2000/svg">
<rect width="36" height="36" fill="#1E1E1E"/>
<rect width="36" height="36" rx="5" fill="white"/>
<rect x="4" y="4" width="28" height="28" rx="3" fill="black"/>
<path d="M20 4H30C31.1046 4 32 4.89543 32 6V16H22C20.8954 16 20 15.1046 20 14V4Z" fill="#FF0000"/>
<path d="M4 11H23C24.1046 11 25 11.8954 25 13V32H6C4.89543 32 4 31.1046 4 30V11Z" fill="#0E21F5"/>
<path d="M14.6056 25.011L15.0996 26.649C14.9089 26.7963 14.6619 26.9133 14.3586 27C14.0639 27.0867 13.7606 27.13 13.4486 27.13C12.8852 27.13 12.3912 27.0173 11.9666 26.792C11.5419 26.558 11.1909 26.22 10.9136 25.778L9.80857 24.01C9.67857 23.802 9.54857 23.659 9.41857 23.581C9.29724 23.4943 9.15424 23.4467 8.98957 23.438V27H6.90957V17.77H9.93857C11.2126 17.77 12.1659 18.0257 12.7986 18.537C13.4399 19.0483 13.7606 19.7547 13.7606 20.656C13.7606 21.3667 13.5396 21.9473 13.0976 22.398C12.6642 22.8487 12.1052 23.1433 11.4206 23.282C11.7066 23.4207 11.9579 23.6503 12.1746 23.971L12.6166 24.647C12.8939 25.063 13.2579 25.271 13.7086 25.271C13.8732 25.271 14.0292 25.2537 14.1766 25.219C14.3239 25.1757 14.4669 25.1063 14.6056 25.011ZM9.82157 19.499H8.98957V21.787H9.80857C10.4586 21.787 10.9266 21.696 11.2126 21.514C11.4986 21.3233 11.6416 21.0287 11.6416 20.63C11.6416 20.2313 11.4812 19.9453 11.1606 19.772C10.8399 19.59 10.3936 19.499 9.82157 19.499ZM17.584 27H15.517V17.77H18.91C20.21 17.77 21.185 18.0213 21.835 18.524C22.485 19.018 22.81 19.746 22.81 20.708C22.81 21.6613 22.4417 22.411 21.705 22.957C20.977 23.503 19.95 23.776 18.624 23.776H17.584V27ZM18.897 19.499H17.584V22.021H18.728C19.3953 22.021 19.8893 21.9213 20.21 21.722C20.5307 21.5227 20.691 21.1933 20.691 20.734C20.691 20.2747 20.5437 19.954 20.249 19.772C19.963 19.59 19.5123 19.499 18.897 19.499Z" fill="white"/>
</svg>
